{
	"patcher" : 	{
		"fileversion" : 1,
		"appversion" : 		{
			"major" : 8,
			"minor" : 1,
			"revision" : 11,
			"architecture" : "x64",
			"modernui" : 1
		}
,
		"classnamespace" : "box",
		"rect" : [ 406.0, 175.0, 640.0, 480.0 ],
		"bglocked" : 0,
		"openinpresentation" : 0,
		"default_fontsize" : 12.0,
		"default_fontface" : 0,
		"default_fontname" : "Arial",
		"gridonopen" : 1,
		"gridsize" : [ 15.0, 15.0 ],
		"gridsnaponopen" : 1,
		"objectsnaponopen" : 1,
		"statusbarvisible" : 2,
		"toolbarvisible" : 1,
		"lefttoolbarpinned" : 0,
		"toptoolbarpinned" : 0,
		"righttoolbarpinned" : 0,
		"bottomtoolbarpinned" : 0,
		"toolbars_unpinned_last_save" : 0,
		"tallnewobj" : 0,
		"boxanimatetime" : 200,
		"enablehscroll" : 1,
		"enablevscroll" : 1,
		"devicewidth" : 0.0,
		"description" : "",
		"digest" : "",
		"tags" : "",
		"style" : "",
		"subpatcher_template" : "",
		"assistshowspatchername" : 0,
		"boxes" : [ 			{
				"box" : 				{
					"comment" : "sensor bang in",
					"id" : "obj-5",
					"index" : 5,
					"maxclass" : "inlet",
					"numinlets" : 0,
					"numoutlets" : 1,
					"outlettype" : [ "" ],
					"patching_rect" : [ 451.000005006790161, 39.999988346511941, 30.0, 30.0 ]
				}

			}
, 			{
				"box" : 				{
					"comment" : "Loop on/off",
					"id" : "obj-4",
					"index" : 4,
					"maxclass" : "inlet",
					"numinlets" : 0,
					"numoutlets" : 1,
					"outlettype" : [ "" ],
					"patching_rect" : [ 394.500003933906555, 39.999988346511941, 30.0, 30.0 ]
				}

			}
, 			{
				"box" : 				{
					"id" : "obj-80",
					"maxclass" : "comment",
					"numinlets" : 1,
					"numoutlets" : 0,
					"patching_rect" : [ 485.766684210300468, 168.833346145767223, 64.666664123535156, 20.0 ],
					"text" : "sensor in"
				}

			}
, 			{
				"box" : 				{
					"id" : "obj-74",
					"maxclass" : "newobj",
					"numinlets" : 1,
					"numoutlets" : 1,
					"outlettype" : [ "bang" ],
					"patching_rect" : [ 50.0, 210.833347457069522, 88.0, 22.0 ],
					"text" : "loadbang bang"
				}

			}
, 			{
				"box" : 				{
					"id" : "obj-66",
					"maxclass" : "comment",
					"numinlets" : 1,
					"numoutlets" : 0,
					"patching_rect" : [ 379.16667115688324, 134.666666865348816, 49.999997019767761, 20.0 ],
					"text" : "D key"
				}

			}
, 			{
				"box" : 				{
					"id" : "obj-42",
					"maxclass" : "toggle",
					"numinlets" : 1,
					"numoutlets" : 1,
					"outlettype" : [ "int" ],
					"parameter_enable" : 0,
					"patching_rect" : [ 285.833337962627411, 156.166696088928347, 24.0, 24.0 ]
				}

			}
, 			{
				"box" : 				{
					"id" : "obj-39",
					"maxclass" : "newobj",
					"numinlets" : 2,
					"numoutlets" : 1,
					"outlettype" : [ "" ],
					"patching_rect" : [ 285.833337962627411, 201.500005722046012, 32.0, 22.0 ],
					"text" : "gate"
				}

			}
, 			{
				"box" : 				{
					"id" : "obj-30",
					"maxclass" : "newobj",
					"numinlets" : 2,
					"numoutlets" : 2,
					"outlettype" : [ "bang", "" ],
					"patching_rect" : [ 285.836670143604238, 289.503349364418114, 47.0, 22.0 ],
					"text" : "sel 384"
				}

			}
, 			{
				"box" : 				{
					"id" : "obj-28",
					"maxclass" : "newobj",
					"numinlets" : 5,
					"numoutlets" : 4,
					"outlettype" : [ "int", "", "", "int" ],
					"patching_rect" : [ 285.833337962627411, 242.833347218650943, 92.0, 22.0 ],
					"text" : "counter 0 1 384"
				}

			}
, 			{
				"box" : 				{
					"id" : "obj-115",
					"maxclass" : "button",
					"numinlets" : 1,
					"numoutlets" : 1,
					"outlettype" : [ "bang" ],
					"parameter_enable" : 0,
					"patching_rect" : [ 454.000005006790161, 166.833346145767223, 24.0, 24.0 ]
				}

			}
, 			{
				"box" : 				{
					"id" : "obj-72",
					"maxclass" : "button",
					"numinlets" : 1,
					"numoutlets" : 1,
					"outlettype" : [ "bang" ],
					"parameter_enable" : 0,
					"patching_rect" : [ 334.50000387430191, 157.500004410743827, 25.333333373069763, 25.333333373069763 ]
				}

			}
, 			{
				"box" : 				{
					"fontname" : "Lato",
					"fontsize" : 13.0,
					"id" : "obj-76",
					"maxclass" : "newobj",
					"numinlets" : 2,
					"numoutlets" : 2,
					"outlettype" : [ "bang", "bang" ],
					"patching_rect" : [ 386.500004947185516, 199.166666865348816, 71.333333373069763, 24.0 ],
					"text" : "onebang"
				}

			}
, 			{
				"box" : 				{
					"fontname" : "Lato",
					"fontsize" : 13.0,
					"id" : "obj-77",
					"maxclass" : "newobj",
					"numinlets" : 2,
					"numoutlets" : 2,
					"outlettype" : [ "bang", "" ],
					"patching_rect" : [ 530.83333832025528, 134.666666865348816, 54.333333373069763, 24.0 ],
					"text" : "sel 100"
				}

			}
, 			{
				"box" : 				{
					"fontname" : "Lato",
					"fontsize" : 13.0,
					"id" : "obj-78",
					"maxclass" : "newobj",
					"numinlets" : 0,
					"numoutlets" : 4,
					"outlettype" : [ "int", "int", "int", "int" ],
					"patching_rect" : [ 542.83333832025528, 103.0, 42.333333373069763, 24.0 ],
					"text" : "key"
				}

			}
, 			{
				"box" : 				{
					"fontname" : "Arial",
					"fontsize" : 12.0,
					"id" : "obj-139",
					"maxclass" : "message",
					"numinlets" : 2,
					"numoutlets" : 1,
					"outlettype" : [ "" ],
					"patching_rect" : [ 473.833337247371674, 345.500018137115603, 31.0, 22.0 ],
					"text" : "stop"
				}

			}
, 			{
				"box" : 				{
					"fontname" : "Arial",
					"fontsize" : 12.0,
					"id" : "obj-140",
					"maxclass" : "message",
					"numinlets" : 2,
					"numoutlets" : 1,
					"outlettype" : [ "" ],
					"patching_rect" : [ 419.833337247371674, 345.500018137115603, 50.333333373069763, 22.0 ],
					"text" : "start -1"
				}

			}
, 			{
				"box" : 				{
					"fontname" : "Arial",
					"fontsize" : 12.0,
					"id" : "obj-141",
					"maxclass" : "message",
					"numinlets" : 2,
					"numoutlets" : 1,
					"outlettype" : [ "" ],
					"patching_rect" : [ 365.833337247371674, 345.500018137115603, 29.333333373069763, 22.0 ],
					"text" : "tick"
				}

			}
, 			{
				"box" : 				{
					"id" : "obj-14",
					"maxclass" : "newobj",
					"numinlets" : 2,
					"numoutlets" : 1,
					"outlettype" : [ "int" ],
					"patching_rect" : [ 242.166670501232147, 433.166682260650759, 30.833333373069763, 22.0 ],
					"text" : "+ 1"
				}

			}
, 			{
				"box" : 				{
					"id" : "obj-12",
					"maxclass" : "newobj",
					"numinlets" : 2,
					"numoutlets" : 0,
					"patching_rect" : [ 250.833337247371674, 473.16668214144147, 88.333333373069763, 22.0 ],
					"text" : "pgmout synth1"
				}

			}
, 			{
				"box" : 				{
					"id" : "obj-11",
					"linecount" : 2,
					"maxclass" : "message",
					"numinlets" : 2,
					"numoutlets" : 1,
					"outlettype" : [ "" ],
					"patching_rect" : [ 50.0, 242.833336591720581, 194.333333373069763, 35.0 ],
					"text" : ";\r#SM createoutport synth1 augraph"
				}

			}
, 			{
				"box" : 				{
					"id" : "obj-1",
					"maxclass" : "newobj",
					"numinlets" : 1,
					"numoutlets" : 0,
					"patching_rect" : [ 365.833337247371674, 477.16668202223218, 87.333333373069763, 22.0 ],
					"text" : "midiout synth1"
				}

			}
, 			{
				"box" : 				{
					"id" : "obj-73",
					"items" : [ "Acoustic", "Grand", "Piano", ",", "Bright", "Acoustic", "Piano", ",", "Electric", "Grand", "Piano", ",", "Honky-Tonk", "Piano", ",", "Electric", "Piano", 1, ",", "Electric", "Piano", 2, ",", "Harpsichord", ",", "Clavinet", ",", "Celesta", ",", "Glockenspiel", ",", "Music", "Box", ",", "Vibraphone", ",", "Marimba", ",", "Xylophone", ",", "Tubular", "Bells", ",", "Dulcimer", ",", "Drawbar", "Organ", ",", "Percussive", "Organ", ",", "Rock", "Organ", ",", "Church", "Organ", ",", "Reed", "Organ", ",", "Accordion", ",", "Harmonica", ",", "Tango", "Accordion", ",", "Nylon", "Acoustic", "Guitar", ",", "Steel", "Acoustic", "Guitar", ",", "Jazz", "Acoustic", "Guitar", ",", "Clean", "Electric", "Guitar", ",", "Muted", "Electric", "Guitar", ",", "Overdriven", "Guitar", ",", "Distortion", "Guitar", ",", "Guitar", "Harmonics", ",", "Acoustic", "Bass", ",", "Fingered", "Electric", "Bass", ",", "Picked", "Electric", "Bass", ",", "Fretless", "Bass", ",", "Slap", "Bass", 1, ",", "Slap", "Bass", 2, ",", "Synth", "Bass", 1, ",", "Synth", "Bass", 2, ",", "Violin", ",", "Viola", ",", "Cello", ",", "Contrabass", ",", "Tremolo", "Strings", ",", "Pizzicato", "Strings", ",", "Orchestral", "Harp", ",", "Timpani", ",", "String", "Ensemble", 1, ",", "String", "Ensemble", 2, ",", "Synth", "Strings", 1, ",", "Synth", "Strings", 2, ",", "Choir", "Aahs", ",", "Voice", "Oohs", ",", "Synth", "Voice", ",", "Orchestra", "Hit", ",", "Trumpet", ",", "Trombone", ",", "Tuba", ",", "Muted", "Trumpet", ",", "French", "Horn", ",", "Brass", "Section", ",", "Synth", "Brass", 1, ",", "Synth", "Brass", 2, ",", "Soprano", "Sax", ",", "Alto", "Sax", ",", "Tenor", "Sax", ",", "Baritone", "Sax", ",", "Oboe", ",", "English", "Horn", ",", "Bassoon", ",", "Clarinet", ",", "Piccolo", ",", "Flute", ",", "Recorder", ",", "Pan", "Flute", ",", "Blown", "Bottle", ",", "Shakuhachi", ",", "Whistle", ",", "Ocarina", ",", "Square", ",", "Sawtooth", ",", "Calliope", ",", "Chiff", ",", "Charang", ",", "Voice", ",", "Fifths", ",", "Bass", "&", "Lead", ",", "New", "Age", ",", "Warm", ",", "Polysynth", ",", "Choir", ",", "Bowed", ",", "Metallic", ",", "Halo", ",", "Sweep", ",", "Rain", ",", "Soundtrack", ",", "Crystal", ",", "Atmosphere", ",", "Brightness", ",", "Goblins", ",", "Echoes", ",", "Sci-Fi", ",", "Sitar", ",", "Banjo", ",", "Shamisen", ",", "Koto", ",", "Kalimba", ",", "Bag", "Pipe", ",", "Fiddle", ",", "Shanai", ",", "Tinkle", "Bell", ",", "Agogo", ",", "Steel", "Drums", ",", "Woodblock", ",", "Taiko", "Drum", ",", "Melodic", "Tom", ",", "Synth", "Drum", ",", "Reverse", "Cymbal", ",", "Guitar", "Fret", "Noise", ",", "Breath", "Noise", ",", "Seashore", ",", "Bird", "Tweet", ",", "Telephone", "Ring", ",", "Helicopter", ",", "Applause", ",", "Gunshot" ],
					"maxclass" : "umenu",
					"numinlets" : 1,
					"numoutlets" : 3,
					"outlettype" : [ "int", "", "" ],
					"parameter_enable" : 0,
					"patching_rect" : [ 225.5000039935112, 399.833339333534354, 101.333333373069763, 22.0 ]
				}

			}
, 			{
				"box" : 				{
					"id" : "obj-50",
					"maxclass" : "newobj",
					"numinlets" : 1,
					"numoutlets" : 1,
					"outlettype" : [ "int" ],
					"patching_rect" : [ 365.833337247371674, 442.500007271766776, 63.333333373069763, 22.0 ],
					"text" : "midiflush"
				}

			}
, 			{
				"box" : 				{
					"fontname" : "Arial",
					"fontsize" : 13.0,
					"id" : "obj-54",
					"maxclass" : "newobj",
					"numinlets" : 1,
					"numoutlets" : 2,
					"outlettype" : [ "int", "bang" ],
					"patching_rect" : [ 373.833337247371674, 394.166674256324882, 29.5, 23.0 ],
					"text" : "seq"
				}

			}
, 			{
				"box" : 				{
					"fontname" : "Arial",
					"fontsize" : 13.0,
					"id" : "obj-55",
					"maxclass" : "message",
					"numinlets" : 2,
					"numoutlets" : 1,
					"outlettype" : [ "" ],
					"patching_rect" : [ 280.833337247371674, 345.500018137115603, 58.333333373069763, 23.0 ],
					"text" : "read"
				}

			}
, 			{
				"box" : 				{
					"id" : "obj-56",
					"maxclass" : "button",
					"numinlets" : 1,
					"numoutlets" : 1,
					"outlettype" : [ "bang" ],
					"parameter_enable" : 0,
					"patching_rect" : [ 419.833337247371674, 416.83333957195282, 21.333333373069763, 21.333333373069763 ]
				}

			}
, 			{
				"box" : 				{
					"comment" : "metro in",
					"id" : "obj-81",
					"index" : 1,
					"maxclass" : "inlet",
					"numinlets" : 0,
					"numoutlets" : 1,
					"outlettype" : [ "" ],
					"patching_rect" : [ 210.336670143604238, 39.999988346511941, 30.0, 30.0 ]
				}

			}
, 			{
				"box" : 				{
					"comment" : "Start (bang)",
					"id" : "obj-82",
					"index" : 2,
					"maxclass" : "inlet",
					"numinlets" : 0,
					"numoutlets" : 1,
					"outlettype" : [ "" ],
					"patching_rect" : [ 271.500006666767149, 39.999988346511941, 30.0, 30.0 ]
				}

			}
, 			{
				"box" : 				{
					"comment" : "Stop",
					"id" : "obj-83",
					"index" : 3,
					"maxclass" : "inlet",
					"numinlets" : 0,
					"numoutlets" : 1,
					"outlettype" : [ "" ],
					"patching_rect" : [ 334.50000387430191, 39.999988346511941, 30.0, 30.0 ]
				}

			}
 ],
		"lines" : [ 			{
				"patchline" : 				{
					"destination" : [ "obj-76", 1 ],
					"source" : [ "obj-115", 0 ]
				}

			}
, 			{
				"patchline" : 				{
					"destination" : [ "obj-54", 0 ],
					"source" : [ "obj-139", 0 ]
				}

			}
, 			{
				"patchline" : 				{
					"destination" : [ "obj-12", 0 ],
					"midpoints" : [ 251.666670501232147, 467.666682201046115, 260.333337247371674, 467.666682201046115 ],
					"source" : [ "obj-14", 0 ]
				}

			}
, 			{
				"patchline" : 				{
					"destination" : [ "obj-54", 0 ],
					"source" : [ "obj-140", 0 ]
				}

			}
, 			{
				"patchline" : 				{
					"destination" : [ "obj-54", 0 ],
					"source" : [ "obj-141", 0 ]
				}

			}
, 			{
				"patchline" : 				{
					"destination" : [ "obj-30", 0 ],
					"source" : [ "obj-28", 0 ]
				}

			}
, 			{
				"patchline" : 				{
					"destination" : [ "obj-140", 0 ],
					"source" : [ "obj-30", 0 ]
				}

			}
, 			{
				"patchline" : 				{
					"destination" : [ "obj-28", 0 ],
					"source" : [ "obj-39", 0 ]
				}

			}
, 			{
				"patchline" : 				{
					"destination" : [ "obj-42", 0 ],
					"midpoints" : [ 404.000003933906555, 124.0, 273.0, 143.0 ],
					"source" : [ "obj-4", 0 ]
				}

			}
, 			{
				"patchline" : 				{
					"destination" : [ "obj-39", 0 ],
					"source" : [ "obj-42", 0 ]
				}

			}
, 			{
				"patchline" : 				{
					"destination" : [ "obj-115", 0 ],
					"source" : [ "obj-5", 0 ]
				}

			}
, 			{
				"patchline" : 				{
					"destination" : [ "obj-1", 0 ],
					"source" : [ "obj-50", 0 ]
				}

			}
, 			{
				"patchline" : 				{
					"destination" : [ "obj-50", 0 ],
					"source" : [ "obj-54", 0 ]
				}

			}
, 			{
				"patchline" : 				{
					"destination" : [ "obj-56", 0 ],
					"source" : [ "obj-54", 1 ]
				}

			}
, 			{
				"patchline" : 				{
					"destination" : [ "obj-54", 0 ],
					"source" : [ "obj-55", 0 ]
				}

			}
, 			{
				"patchline" : 				{
					"destination" : [ "obj-140", 0 ],
					"midpoints" : [ 344.00000387430191, 231.66667796046454, 429.333337247371674, 231.66667796046454 ],
					"order" : 0,
					"source" : [ "obj-72", 0 ]
				}

			}
, 			{
				"patchline" : 				{
					"destination" : [ "obj-28", 2 ],
					"midpoints" : [ 344.00000387430191, 212.33334250123221, 331.833337962627411, 212.33334250123221 ],
					"order" : 1,
					"source" : [ "obj-72", 0 ]
				}

			}
, 			{
				"patchline" : 				{
					"destination" : [ "obj-42", 0 ],
					"midpoints" : [ 344.00000387430191, 192.83333778381359, 319.666670918464661, 192.83333778381359, 319.666670918464661, 145.166696088928347, 295.333337962627411, 145.166696088928347 ],
					"order" : 2,
					"source" : [ "obj-72", 0 ]
				}

			}
, 			{
				"patchline" : 				{
					"destination" : [ "obj-14", 0 ],
					"source" : [ "obj-73", 0 ]
				}

			}
, 			{
				"patchline" : 				{
					"destination" : [ "obj-11", 0 ],
					"source" : [ "obj-74", 0 ]
				}

			}
, 			{
				"patchline" : 				{
					"destination" : [ "obj-72", 0 ],
					"source" : [ "obj-76", 0 ]
				}

			}
, 			{
				"patchline" : 				{
					"destination" : [ "obj-115", 0 ],
					"source" : [ "obj-77", 0 ]
				}

			}
, 			{
				"patchline" : 				{
					"destination" : [ "obj-77", 0 ],
					"source" : [ "obj-78", 0 ]
				}

			}
, 			{
				"patchline" : 				{
					"destination" : [ "obj-141", 0 ],
					"midpoints" : [ 219.836670143604238, 207.250003241813772, 375.333337247371674, 207.250003241813772 ],
					"order" : 0,
					"source" : [ "obj-81", 0 ]
				}

			}
, 			{
				"patchline" : 				{
					"destination" : [ "obj-39", 1 ],
					"midpoints" : [ 219.836670143604238, 135.249997034278977, 308.333337962627411, 135.249997034278977 ],
					"order" : 1,
					"source" : [ "obj-81", 0 ]
				}

			}
, 			{
				"patchline" : 				{
					"destination" : [ "obj-76", 0 ],
					"midpoints" : [ 281.000006666767149, 134.083327605930378, 396.000004947185516, 134.083327605930378 ],
					"source" : [ "obj-82", 0 ]
				}

			}
, 			{
				"patchline" : 				{
					"destination" : [ "obj-139", 0 ],
					"midpoints" : [ 344.00000387430191, 113.250003241813772, 483.333337247371674, 113.250003241813772 ],
					"source" : [ "obj-83", 0 ]
				}

			}
 ]
	}

}
