#N canvas 346 254 623 483 12;
#X obj 232 264 midiout;
#X msg 283 130 stop;
#X obj 218 122 bng 22 250 50 0 empty bng_play empty 17 7 0 10 -216373
-66577 -1;
#X obj 314 264 print;
#X obj 236 215 cyclone/seq midi_test_1.mid;
#X connect 1 0 4 0;
#X connect 2 0 4 0;
#X connect 4 0 0 0;
#X connect 4 0 3 0;
